<?xml version="1.0" encoding="iso-8859-1"?>
<!-- Uploaded to: SVG Repo, www.svgrepo.com, Generator: SVG Repo Mixer Tools -->
<svg fill="#000000" height="800px" width="800px" version="1.1" id="Capa_1" xmlns="http://www.w3.org/2000/svg" xmlns:xlink="http://www.w3.org/1999/xlink" 
	 viewBox="0 0 463 463" xml:space="preserve">
<g>
	<path d="M455.5,304H447V199.5c0-4.142-3.358-7.5-7.5-7.5H159v-40.5c0-4.142-3.358-7.5-7.5-7.5h-128c-4.142,0-7.5,3.358-7.5,7.5V304
		H7.5c-4.142,0-7.5,3.358-7.5,7.5s3.358,7.5,7.5,7.5h448c4.142,0,7.5-3.358,7.5-7.5S459.642,304,455.5,304z M159,279h273v25H159V279
		z M383,264v-57h17v57H383z M368,264h-17v-57h17V264z M336,264h-17v-57h17V264z M304,264h-17v-57h17V264z M272,264h-17v-57h17V264z
		 M240,264h-17v-57h17V264z M208,264h-17v-57h17V264z M432,264h-17v-57h17V264z M176,207v57h-17v-57H176z M31,159h113v40.5V304H31
		V159z"/>
	<path d="M71.5,272h-16c-4.142,0-7.5,3.358-7.5,7.5s3.358,7.5,7.5,7.5h16c4.142,0,7.5-3.358,7.5-7.5S75.642,272,71.5,272z"/>
	<path d="M119.5,272h-16c-4.142,0-7.5,3.358-7.5,7.5s3.358,7.5,7.5,7.5h16c4.142,0,7.5-3.358,7.5-7.5S123.642,272,119.5,272z"/>
	<path d="M71.5,240h-16c-4.142,0-7.5,3.358-7.5,7.5s3.358,7.5,7.5,7.5h16c4.142,0,7.5-3.358,7.5-7.5S75.642,240,71.5,240z"/>
	<path d="M119.5,240h-16c-4.142,0-7.5,3.358-7.5,7.5s3.358,7.5,7.5,7.5h16c4.142,0,7.5-3.358,7.5-7.5S123.642,240,119.5,240z"/>
	<path d="M71.5,208h-16c-4.142,0-7.5,3.358-7.5,7.5s3.358,7.5,7.5,7.5h16c4.142,0,7.5-3.358,7.5-7.5S75.642,208,71.5,208z"/>
	<path d="M119.5,208h-16c-4.142,0-7.5,3.358-7.5,7.5s3.358,7.5,7.5,7.5h16c4.142,0,7.5-3.358,7.5-7.5S123.642,208,119.5,208z"/>
	<path d="M71.5,176h-16c-4.142,0-7.5,3.358-7.5,7.5s3.358,7.5,7.5,7.5h16c4.142,0,7.5-3.358,7.5-7.5S75.642,176,71.5,176z"/>
	<path d="M103.5,191h16c4.142,0,7.5-3.358,7.5-7.5s-3.358-7.5-7.5-7.5h-16c-4.142,0-7.5,3.358-7.5,7.5S99.358,191,103.5,191z"/>
</g>
</svg>